<svg width="46" height="46" viewBox="0 0 46 46" version="1.1" xmlns="http://www.w3.org/2000/svg"><title>discuss</title><g stroke="none" stroke-width="1" fill="none" fill-rule="evenodd"><g fill="#1CB0F6"><g><path d="M14.442 25.31l-5.27 4.982a1.861 1.861 0 0 1-3.14-1.352v-3.702A5.958 5.958 0 0 1 1 19.353V9.957A5.957 5.957 0 0 1 6.957 4h16.74a5.957 5.957 0 0 1 5.956 5.957v9.396a5.957 5.957 0 0 1-5.956 5.956h-9.255z"/><path d="M40.693 37.827c2.884-.792 4.963-3.547 4.963-6.758v-9.365c0-3.847-2.968-6.987-6.657-6.987H23.89c-3.69 0-6.657 3.14-6.657 6.987v9.365c0 3.846 2.967 6.986 6.657 6.986h7.104l5.05 4.848c.511.49 1.182.764 1.881.764 1.542 0 2.768-1.298 2.768-2.871v-2.969z" stroke="#FFF" stroke-width="2"/></g></g></g></svg>