<?xml version="1.0" encoding="UTF-8"?><svg width="45px" height="45px" viewBox="0 0 44 38" version="1.1" xmlns="http://www.w3.org/2000/svg" xmlns:xlink="http://www.w3.org/1999/xlink"><title>shop</title><desc>Created with Sketch.</desc><g id="shop" stroke="none" stroke-width="1" fill="none" fill-rule="evenodd"><g id="Group-10-Copy-2" transform="translate(2.000000, 2.000000)"><path d="M2.10526316,11.6875 L37.8947368,11.6875 L37.8947368,32.94016 C37.8947368,33.5254935 37.4202303,34 36.8348968,34 L3.16510316,34 C2.57976969,34 2.10526316,33.5254935 2.10526316,32.94016 L2.10526316,11.6875 Z" id="Combined-Shape" stroke="#A56644" stroke-width="2.38464" fill="#A56644"/><path d="M6.31578947,21.25 L14.7368421,21.25 L14.7368421,33.73504 C14.7368421,33.8813734 14.6182155,34 14.4718821,34 L6.58074947,34 C6.43441611,34 6.31578947,33.8813734 6.31578947,33.73504 L6.31578947,21.25 Z" id="Rectangle-Copy-7" stroke="#97E6F8" stroke-width="2.38464" fill="#9AE6F7" transform="translate(10.526316, 27.625000) rotate(-180.000000) translate(-10.526316, -27.625000)"/><g id="Rectangle" transform="translate(19.860312, 20.000000)"><path d="M13.5589389,10.94232 L1.45728,10.94232 C0.65244648,10.94232 0,10.2898735 0,9.48504 L0,1.51496 C0,0.71012648 0.65244648,0.05768 1.45728,0.05768 L13.5589389,0.05768 C14.3637725,0.05768 15.0162189,0.71012648 15.0162189,1.51496 L15.0162189,9.48504 C15.0162189,10.2898735 14.3637725,10.94232 13.5589389,10.94232 Z" id="Mask" fill="#9AE6F7" fill-rule="nonzero"/><path d="M15.0162189,2.36611016 L6.44000911,10.94232 L1.45728,10.94232 C0.65244648,10.94232 0,10.2898735 0,9.48504 L0,8.89704773 L8.83936773,0.05768 L13.5589389,0.05768 C14.3637725,0.05768 15.0162189,0.71012648 15.0162189,1.51496 L15.0162189,2.36611016 Z" id="Path" fill="#FFFFFF"/></g><path d="M2.87692626,6.96052632 L3.46245257,6.96052632 C6.6598906,6.96052632 9.25192626,9.55256197 9.25192626,12.75 C9.25192626,15.947438 6.6598906,18.5394737 3.46245257,18.5394737 L2.87692626,18.5394737 L2.87692626,6.96052632 Z" id="Rectangle-Copy-12" stroke="#FF4945" stroke-width="2.38464" fill="#FF4945" stroke-linejoin="round" transform="translate(6.064426, 12.750000) rotate(-270.000000) translate(-6.064426, -12.750000)"/><path d="M30.7179993,6.96052632 L31.3035256,6.96052632 C34.5009637,6.96052632 37.0929993,9.55256197 37.0929993,12.75 C37.0929993,15.947438 34.5009637,18.5394737 31.3035256,18.5394737 L30.7179993,18.5394737 L30.7179993,6.96052632 Z" id="Rectangle-Copy-14" stroke="#FF4945" stroke-width="2.38464" fill="#FF4945" stroke-linejoin="round" transform="translate(33.905499, 12.750000) rotate(-270.000000) translate(-33.905499, -12.750000)"/><path d="M16.8125,6.96052632 L17.3980263,6.96052632 C20.5954643,6.96052632 23.1875,9.55256197 23.1875,12.75 C23.1875,15.947438 20.5954643,18.5394737 17.3980263,18.5394737 L16.8125,18.5394737 L16.8125,6.96052632 Z" id="Rectangle-Copy-10" stroke="#FFFFFF" stroke-width="2.38464" fill="#FFFFFF" stroke-linejoin="round" transform="translate(20.000000, 12.750000) rotate(-270.000000) translate(-20.000000, -12.750000)"/><polygon id="Rectangle-Copy-11" stroke="#CFCFCF" stroke-width="2.38464" fill="#D0D0D0" stroke-linejoin="round" transform="translate(20.526316, 4.781250) rotate(-270.000000) translate(-20.526316, -4.781250)" points="15.7450658 -6.27138158 25.3075658 -6.27138158 25.3075658 15.8338816 15.7450658 15.8338816"/><path d="M2.32401316,-2.32401316 L11.8865132,-0.21875 L11.8865132,11.3485837 C11.8865132,11.5241837 11.7441612,11.6665357 11.5685612,11.6665357 C11.5149526,11.6665357 11.4622144,11.652981 11.4152495,11.6271317 L3.42161566,7.22747085 C2.7445908,6.85483935 2.32401316,6.1432819 2.32401316,5.3704838 L2.32401316,-2.32401316 Z" id="Rectangle-Copy-13" stroke="#ED2820" stroke-width="2.38464" fill="#EA2B2B" transform="translate(7.105263, 4.781250) rotate(-270.000000) translate(-7.105263, -4.781250)"/><path d="M29.2110893,2.33502915 L37.2047232,-2.06463173 C37.3585611,-2.14930341 37.5519112,-2.09323315 37.6365829,-1.9393953 C37.6624321,-1.89243048 37.6759868,-1.83969223 37.6759868,-1.78608368 L37.6759868,9.78125 L28.1134868,11.8865132 L28.1134868,4.1920162 C28.1134868,3.4192181 28.5340645,2.70766065 29.2110893,2.33502915 Z" id="Rectangle-Copy-15" stroke="#ED2820" stroke-width="2.38464" fill="#EA2B2B" transform="translate(32.894737, 4.781250) rotate(-270.000000) translate(-32.894737, -4.781250)"/></g></g></svg>